<svg width="900" height="4200" viewBox="0 0 900 4200" xmlns="http://www.w3.org/2000/svg" role="img">
<title>Django Learning Path</title>
<desc>Animated roadmap from Lesson 1 to Lesson 48 with arrows between each lesson</desc>

<defs>
  <marker id="arrow" viewBox="0 0 10 10" refX="8" refY="5" markerWidth="6" markerHeight="6" orient="auto-start-reverse">
    <path d="M2 1L8 5L2 9" fill="none" stroke="#1D9E75" stroke-width="1.5" stroke-linecap="round" stroke-linejoin="round"/>
  </marker>
  <marker id="arrow-phase" viewBox="0 0 10 10" refX="8" refY="5" markerWidth="6" markerHeight="6" orient="auto-start-reverse">
    <path d="M2 1L8 5L2 9" fill="none" stroke="#534AB7" stroke-width="1.5" stroke-linecap="round" stroke-linejoin="round"/>
  </marker>

  <style>
    @keyframes blink {
      0%,100% { opacity: 1; }
      50% { opacity: 0; }
    }
    @keyframes pulse {
      0%,100% { opacity: 1; transform: scale(1); }
      50% { opacity: 0.6; transform: scale(0.97); }
    }
    @keyframes dash {
      to { stroke-dashoffset: -20; }
    }
    @keyframes fadein {
      from { opacity: 0; transform: translateY(6px); }
      to   { opacity: 1; transform: translateY(0); }
    }

    .lesson-box { rx: 10; }
    .arrow-line {
      stroke: #1D9E75;
      stroke-width: 2;
      stroke-dasharray: 6 4;
      animation: dash 1s linear infinite;
      fill: none;
    }
    .phase-label {
      font-family: sans-serif;
      font-size: 13px;
      font-weight: 600;
      fill: #534AB7;
      letter-spacing: 1px;
      text-transform: uppercase;
    }
    .lesson-num {
      font-family: sans-serif;
      font-size: 11px;
      font-weight: 700;
      fill: #085041;
    }
    .lesson-title {
      font-family: sans-serif;
      font-size: 13px;
      font-weight: 500;
      fill: #04342C;
    }
    .phase-band {
      fill: #EEEDFE;
      rx: 14;
    }
    .dot {
      fill: #1D9E75;
      animation: blink 1s ease-in-out infinite;
    }
    .dot:nth-child(2) { animation-delay: 0.2s; }
    .dot:nth-child(3) { animation-delay: 0.4s; }
  </style>
</defs>

<!-- Background -->
<rect width="900" height="4200" fill="#f8f9fa"/>

<!-- Title -->
<text x="450" y="48" text-anchor="middle" font-family="sans-serif" font-size="22" font-weight="700" fill="#26215C">Django Get Set Go</text>
<text x="450" y="70" text-anchor="middle" font-family="sans-serif" font-size="13" fill="#888780">Complete Learning Roadmap — 48 Lessons</text>

<!-- ─────────────────────────────────────────── -->
<!-- PHASE 1 -->
<!-- ─────────────────────────────────────────── -->
<rect x="40" y="90" width="820" height="630" rx="14" fill="#E1F5EE" opacity="0.5"/>
<text x="60" y="116" class="phase-label">Phase 1 — Foundations</text>

<!-- L01 -->
<rect x="80" y="128" width="740" height="52" rx="10" fill="#9FE1CB" stroke="#1D9E75" stroke-width="0.5"/>
<text x="100" y="149" class="lesson-num">Lesson 01</text>
<text x="100" y="167" class="lesson-title">How the web works</text>
<!-- arrow -->
<line x1="450" y1="180" x2="450" y2="198" class="arrow-line" marker-end="url(#arrow)" style="animation-delay:0.0s"/>

<!-- L02 -->
<rect x="80" y="200" width="740" height="52" rx="10" fill="#9FE1CB" stroke="#1D9E75" stroke-width="0.5"/>
<text x="100" y="221" class="lesson-num">Lesson 02</text>
<text x="100" y="239" class="lesson-title">Python fundamentals for Django</text>
<line x1="450" y1="252" x2="450" y2="270" class="arrow-line" marker-end="url(#arrow)" style="animation-delay:0.1s"/>

<!-- L03 -->
<rect x="80" y="272" width="740" height="52" rx="10" fill="#9FE1CB" stroke="#1D9E75" stroke-width="0.5"/>
<text x="100" y="293" class="lesson-num">Lesson 03</text>
<text x="100" y="311" class="lesson-title">What is a framework</text>
<line x1="450" y1="324" x2="450" y2="342" class="arrow-line" marker-end="url(#arrow)" style="animation-delay:0.2s"/>

<!-- L04 -->
<rect x="80" y="344" width="740" height="52" rx="10" fill="#9FE1CB" stroke="#1D9E75" stroke-width="0.5"/>
<text x="100" y="365" class="lesson-num">Lesson 04</text>
<text x="100" y="383" class="lesson-title">Project setup</text>
<line x1="450" y1="396" x2="450" y2="414" class="arrow-line" marker-end="url(#arrow)" style="animation-delay:0.3s"/>

<!-- L05 -->
<rect x="80" y="416" width="740" height="52" rx="10" fill="#9FE1CB" stroke="#1D9E75" stroke-width="0.5"/>
<text x="100" y="437" class="lesson-num">Lesson 05</text>
<text x="100" y="455" class="lesson-title">MTV pattern</text>
<line x1="450" y1="468" x2="450" y2="486" class="arrow-line" marker-end="url(#arrow)" style="animation-delay:0.4s"/>

<!-- L06 -->
<rect x="80" y="488" width="740" height="52" rx="10" fill="#9FE1CB" stroke="#1D9E75" stroke-width="0.5"/>
<text x="100" y="509" class="lesson-num">Lesson 06</text>
<text x="100" y="527" class="lesson-title">First view and URL routing</text>
<line x1="450" y1="540" x2="450" y2="558" class="arrow-line" marker-end="url(#arrow)" style="animation-delay:0.5s"/>

<!-- L07 -->
<rect x="80" y="560" width="740" height="52" rx="10" fill="#9FE1CB" stroke="#1D9E75" stroke-width="0.5"/>
<text x="100" y="581" class="lesson-num">Lesson 07</text>
<text x="100" y="599" class="lesson-title">Templates</text>
<line x1="450" y1="612" x2="450" y2="630" class="arrow-line" marker-end="url(#arrow)" style="animation-delay:0.6s"/>

<!-- L08 -->
<rect x="80" y="632" width="740" height="52" rx="10" fill="#9FE1CB" stroke="#1D9E75" stroke-width="0.5"/>
<text x="100" y="653" class="lesson-num">Lesson 08</text>
<text x="100" y="671" class="lesson-title">Static files</text>

<!-- Phase transition arrow -->
<line x1="450" y1="684" x2="450" y2="706" stroke="#534AB7" stroke-width="2.5" stroke-dasharray="6 4" marker-end="url(#arrow-phase)" fill="none" style="animation: dash 0.8s linear infinite"/>

<!-- ─────────────────────────────────────────── -->
<!-- PHASE 2 -->
<!-- ─────────────────────────────────────────── -->
<rect x="40" y="714" width="820" height="558" rx="14" fill="#E6F1FB" opacity="0.5"/>
<text x="60" y="740" class="phase-label" fill="#185FA5">Phase 2 — ORM and Data</text>

<!-- L09 -->
<rect x="80" y="750" width="740" height="52" rx="10" fill="#B5D4F4" stroke="#378ADD" stroke-width="0.5"/>
<text x="100" y="771" class="lesson-num" fill="#0C447C">Lesson 09</text>
<text x="100" y="789" class="lesson-title" fill="#042C53">What is an ORM</text>
<line x1="450" y1="802" x2="450" y2="820" class="arrow-line" stroke="#378ADD" marker-end="url(#arrow)" style="animation-delay:0.0s"/>

<!-- L10 -->
<rect x="80" y="822" width="740" height="52" rx="10" fill="#B5D4F4" stroke="#378ADD" stroke-width="0.5"/>
<text x="100" y="843" class="lesson-num" fill="#0C447C">Lesson 10</text>
<text x="100" y="861" class="lesson-title" fill="#042C53">First model and migrations</text>
<line x1="450" y1="874" x2="450" y2="892" class="arrow-line" stroke="#378ADD" marker-end="url(#arrow)" style="animation-delay:0.1s"/>

<!-- L11 -->
<rect x="80" y="894" width="740" height="52" rx="10" fill="#B5D4F4" stroke="#378ADD" stroke-width="0.5"/>
<text x="100" y="915" class="lesson-num" fill="#0C447C">Lesson 11</text>
<text x="100" y="933" class="lesson-title" fill="#042C53">Django shell</text>
<line x1="450" y1="946" x2="450" y2="964" class="arrow-line" stroke="#378ADD" marker-end="url(#arrow)" style="animation-delay:0.2s"/>

<!-- L12 -->
<rect x="80" y="966" width="740" height="52" rx="10" fill="#B5D4F4" stroke="#378ADD" stroke-width="0.5"/>
<text x="100" y="987" class="lesson-num" fill="#0C447C">Lesson 12</text>
<text x="100" y="1005" class="lesson-title" fill="#042C53">QuerySets in depth</text>
<line x1="450" y1="1018" x2="450" y2="1036" class="arrow-line" stroke="#378ADD" marker-end="url(#arrow)" style="animation-delay:0.3s"/>

<!-- L13 -->
<rect x="80" y="1038" width="740" height="52" rx="10" fill="#B5D4F4" stroke="#378ADD" stroke-width="0.5"/>
<text x="100" y="1059" class="lesson-num" fill="#0C447C">Lesson 13</text>
<text x="100" y="1077" class="lesson-title" fill="#042C53">Relationships</text>
<line x1="450" y1="1090" x2="450" y2="1108" class="arrow-line" stroke="#378ADD" marker-end="url(#arrow)" style="animation-delay:0.4s"/>

<!-- L14 -->
<rect x="80" y="1110" width="740" height="52" rx="10" fill="#B5D4F4" stroke="#378ADD" stroke-width="0.5"/>
<text x="100" y="1131" class="lesson-num" fill="#0C447C">Lesson 14</text>
<text x="100" y="1149" class="lesson-title" fill="#042C53">Advanced ORM</text>
<line x1="450" y1="1162" x2="450" y2="1180" class="arrow-line" stroke="#378ADD" marker-end="url(#arrow)" style="animation-delay:0.5s"/>

<!-- L15 -->
<rect x="80" y="1182" width="740" height="52" rx="10" fill="#B5D4F4" stroke="#378ADD" stroke-width="0.5"/>
<text x="100" y="1203" class="lesson-num" fill="#0C447C">Lesson 15</text>
<text x="100" y="1221" class="lesson-title" fill="#042C53">Admin panel</text>

<line x1="450" y1="1234" x2="450" y2="1256" stroke="#534AB7" stroke-width="2.5" stroke-dasharray="6 4" marker-end="url(#arrow-phase)" fill="none" style="animation: dash 0.8s linear infinite"/>

<!-- ─────────────────────────────────────────── -->
<!-- PHASE 3 -->
<!-- ─────────────────────────────────────────── -->
<rect x="40" y="1264" width="820" height="414" rx="14" fill="#FAEEDA" opacity="0.5"/>
<text x="60" y="1290" class="phase-label" fill="#854F0B">Phase 3 — Forms</text>

<!-- L16 -->
<rect x="80" y="1300" width="740" height="52" rx="10" fill="#FAC775" stroke="#EF9F27" stroke-width="0.5"/>
<text x="100" y="1321" class="lesson-num" fill="#633806">Lesson 16</text>
<text x="100" y="1339" class="lesson-title" fill="#412402">HTML forms vs Django forms</text>
<line x1="450" y1="1352" x2="450" y2="1370" class="arrow-line" stroke="#EF9F27" marker-end="url(#arrow)" style="animation-delay:0.0s"/>

<!-- L17 -->
<rect x="80" y="1372" width="740" height="52" rx="10" fill="#FAC775" stroke="#EF9F27" stroke-width="0.5"/>
<text x="100" y="1393" class="lesson-num" fill="#633806">Lesson 17</text>
<text x="100" y="1411" class="lesson-title" fill="#412402">Django forms in depth</text>
<line x1="450" y1="1424" x2="450" y2="1442" class="arrow-line" stroke="#EF9F27" marker-end="url(#arrow)" style="animation-delay:0.1s"/>

<!-- L18 -->
<rect x="80" y="1444" width="740" height="52" rx="10" fill="#FAC775" stroke="#EF9F27" stroke-width="0.5"/>
<text x="100" y="1465" class="lesson-num" fill="#633806">Lesson 18</text>
<text x="100" y="1483" class="lesson-title" fill="#412402">ModelForms</text>
<line x1="450" y1="1496" x2="450" y2="1514" class="arrow-line" stroke="#EF9F27" marker-end="url(#arrow)" style="animation-delay:0.2s"/>

<!-- L19 -->
<rect x="80" y="1516" width="740" height="52" rx="10" fill="#FAC775" stroke="#EF9F27" stroke-width="0.5"/>
<text x="100" y="1537" class="lesson-num" fill="#633806">Lesson 19</text>
<text x="100" y="1555" class="lesson-title" fill="#412402">Form validation</text>
<line x1="450" y1="1568" x2="450" y2="1586" class="arrow-line" stroke="#EF9F27" marker-end="url(#arrow)" style="animation-delay:0.3s"/>

<!-- L20 -->
<rect x="80" y="1588" width="740" height="52" rx="10" fill="#FAC775" stroke="#EF9F27" stroke-width="0.5"/>
<text x="100" y="1609" class="lesson-num" fill="#633806">Lesson 20</text>
<text x="100" y="1627" class="lesson-title" fill="#412402">File and image uploads</text>

<line x1="450" y1="1640" x2="450" y2="1662" stroke="#534AB7" stroke-width="2.5" stroke-dasharray="6 4" marker-end="url(#arrow-phase)" fill="none" style="animation: dash 0.8s linear infinite"/>

<!-- ─────────────────────────────────────────── -->
<!-- PHASE 4 -->
<!-- ─────────────────────────────────────────── -->
<rect x="40" y="1670" width="820" height="342" rx="14" fill="#FBEAF0" opacity="0.5"/>
<text x="60" y="1696" class="phase-label" fill="#993556">Phase 4 — Authentication</text>

<!-- L21 -->
<rect x="80" y="1706" width="740" height="52" rx="10" fill="#F4C0D1" stroke="#D4537E" stroke-width="0.5"/>
<text x="100" y="1727" class="lesson-num" fill="#72243E">Lesson 21</text>
<text x="100" y="1745" class="lesson-title" fill="#4B1528">Built-in auth system</text>
<line x1="450" y1="1758" x2="450" y2="1776" class="arrow-line" stroke="#D4537E" marker-end="url(#arrow)" style="animation-delay:0.0s"/>

<!-- L22 -->
<rect x="80" y="1778" width="740" height="52" rx="10" fill="#F4C0D1" stroke="#D4537E" stroke-width="0.5"/>
<text x="100" y="1799" class="lesson-num" fill="#72243E">Lesson 22</text>
<text x="100" y="1817" class="lesson-title" fill="#4B1528">Permissions and decorators</text>
<line x1="450" y1="1830" x2="450" y2="1848" class="arrow-line" stroke="#D4537E" marker-end="url(#arrow)" style="animation-delay:0.1s"/>

<!-- L23 -->
<rect x="80" y="1850" width="740" height="52" rx="10" fill="#F4C0D1" stroke="#D4537E" stroke-width="0.5"/>
<text x="100" y="1871" class="lesson-num" fill="#72243E">Lesson 23</text>
<text x="100" y="1889" class="lesson-title" fill="#4B1528">Extending the User model</text>
<line x1="450" y1="1902" x2="450" y2="1920" class="arrow-line" stroke="#D4537E" marker-end="url(#arrow)" style="animation-delay:0.2s"/>

<!-- L24 -->
<rect x="80" y="1922" width="740" height="52" rx="10" fill="#F4C0D1" stroke="#D4537E" stroke-width="0.5"/>
<text x="100" y="1943" class="lesson-num" fill="#72243E">Lesson 24</text>
<text x="100" y="1961" class="lesson-title" fill="#4B1528">Password management</text>

<line x1="450" y1="1974" x2="450" y2="1996" stroke="#534AB7" stroke-width="2.5" stroke-dasharray="6 4" marker-end="url(#arrow-phase)" fill="none" style="animation: dash 0.8s linear infinite"/>

<!-- ─────────────────────────────────────────── -->
<!-- PHASE 5 -->
<!-- ─────────────────────────────────────────── -->
<rect x="40" y="2004" width="820" height="342" rx="14" fill="#EEEDFE" opacity="0.5"/>
<text x="60" y="2030" class="phase-label" fill="#3C3489">Phase 5 — Class-Based Views</text>

<!-- L25 -->
<rect x="80" y="2040" width="740" height="52" rx="10" fill="#CECBF6" stroke="#7F77DD" stroke-width="0.5"/>
<text x="100" y="2061" class="lesson-num" fill="#3C3489">Lesson 25</text>
<text x="100" y="2079" class="lesson-title" fill="#26215C">Why CBVs exist</text>
<line x1="450" y1="2092" x2="450" y2="2110" class="arrow-line" stroke="#7F77DD" marker-end="url(#arrow)" style="animation-delay:0.0s"/>

<!-- L26 -->
<rect x="80" y="2112" width="740" height="52" rx="10" fill="#CECBF6" stroke="#7F77DD" stroke-width="0.5"/>
<text x="100" y="2133" class="lesson-num" fill="#3C3489">Lesson 26</text>
<text x="100" y="2151" class="lesson-title" fill="#26215C">Generic views</text>
<line x1="450" y1="2164" x2="450" y2="2182" class="arrow-line" stroke="#7F77DD" marker-end="url(#arrow)" style="animation-delay:0.1s"/>

<!-- L27 -->
<rect x="80" y="2184" width="740" height="52" rx="10" fill="#CECBF6" stroke="#7F77DD" stroke-width="0.5"/>
<text x="100" y="2205" class="lesson-num" fill="#3C3489">Lesson 27</text>
<text x="100" y="2223" class="lesson-title" fill="#26215C">Mixins</text>
<line x1="450" y1="2236" x2="450" y2="2254" class="arrow-line" stroke="#7F77DD" marker-end="url(#arrow)" style="animation-delay:0.2s"/>

<!-- L28 -->
<rect x="80" y="2256" width="740" height="52" rx="10" fill="#CECBF6" stroke="#7F77DD" stroke-width="0.5"/>
<text x="100" y="2277" class="lesson-num" fill="#3C3489">Lesson 28</text>
<text x="100" y="2295" class="lesson-title" fill="#26215C">FBVs vs CBVs judgment</text>

<line x1="450" y1="2308" x2="450" y2="2330" stroke="#534AB7" stroke-width="2.5" stroke-dasharray="6 4" marker-end="url(#arrow-phase)" fill="none" style="animation: dash 0.8s linear infinite"/>

<!-- ─────────────────────────────────────────── -->
<!-- PHASE 6 -->
<!-- ─────────────────────────────────────────── -->
<rect x="40" y="2338" width="820" height="558" rx="14" fill="#FAECE7" opacity="0.5"/>
<text x="60" y="2364" class="phase-label" fill="#993C1D">Phase 6 — REST APIs</text>

<!-- L29 -->
<rect x="80" y="2374" width="740" height="52" rx="10" fill="#F5C4B3" stroke="#D85A30" stroke-width="0.5"/>
<text x="100" y="2395" class="lesson-num" fill="#712B13">Lesson 29</text>
<text x="100" y="2413" class="lesson-title" fill="#4A1B0C">Why APIs</text>
<line x1="450" y1="2426" x2="450" y2="2444" class="arrow-line" stroke="#D85A30" marker-end="url(#arrow)" style="animation-delay:0.0s"/>

<!-- L30 -->
<rect x="80" y="2446" width="740" height="52" rx="10" fill="#F5C4B3" stroke="#D85A30" stroke-width="0.5"/>
<text x="100" y="2467" class="lesson-num" fill="#712B13">Lesson 30</text>
<text x="100" y="2485" class="lesson-title" fill="#4A1B0C">DRF setup and serializers</text>
<line x1="450" y1="2498" x2="450" y2="2516" class="arrow-line" stroke="#D85A30" marker-end="url(#arrow)" style="animation-delay:0.1s"/>

<!-- L31 -->
<rect x="80" y="2518" width="740" height="52" rx="10" fill="#F5C4B3" stroke="#D85A30" stroke-width="0.5"/>
<text x="100" y="2539" class="lesson-num" fill="#712B13">Lesson 31</text>
<text x="100" y="2557" class="lesson-title" fill="#4A1B0C">API views and ViewSets</text>
<line x1="450" y1="2570" x2="450" y2="2588" class="arrow-line" stroke="#D85A30" marker-end="url(#arrow)" style="animation-delay:0.2s"/>

<!-- L32 -->
<rect x="80" y="2590" width="740" height="52" rx="10" fill="#F5C4B3" stroke="#D85A30" stroke-width="0.5"/>
<text x="100" y="2611" class="lesson-num" fill="#712B13">Lesson 32</text>
<text x="100" y="2629" class="lesson-title" fill="#4A1B0C">Authentication in DRF</text>
<line x1="450" y1="2642" x2="450" y2="2660" class="arrow-line" stroke="#D85A30" marker-end="url(#arrow)" style="animation-delay:0.3s"/>

<!-- L33 -->
<rect x="80" y="2662" width="740" height="52" rx="10" fill="#F5C4B3" stroke="#D85A30" stroke-width="0.5"/>
<text x="100" y="2683" class="lesson-num" fill="#712B13">Lesson 33</text>
<text x="100" y="2701" class="lesson-title" fill="#4A1B0C">Permissions in DRF</text>
<line x1="450" y1="2714" x2="450" y2="2732" class="arrow-line" stroke="#D85A30" marker-end="url(#arrow)" style="animation-delay:0.4s"/>

<!-- L34 -->
<rect x="80" y="2734" width="740" height="52" rx="10" fill="#F5C4B3" stroke="#D85A30" stroke-width="0.5"/>
<text x="100" y="2755" class="lesson-num" fill="#712B13">Lesson 34</text>
<text x="100" y="2773" class="lesson-title" fill="#4A1B0C">Filtering, searching, ordering</text>
<line x1="450" y1="2786" x2="450" y2="2804" class="arrow-line" stroke="#D85A30" marker-end="url(#arrow)" style="animation-delay:0.5s"/>

<!-- L35 -->
<rect x="80" y="2806" width="740" height="52" rx="10" fill="#F5C4B3" stroke="#D85A30" stroke-width="0.5"/>
<text x="100" y="2827" class="lesson-num" fill="#712B13">Lesson 35</text>
<text x="100" y="2845" class="lesson-title" fill="#4A1B0C">Pagination</text>

<line x1="450" y1="2858" x2="450" y2="2880" stroke="#534AB7" stroke-width="2.5" stroke-dasharray="6 4" marker-end="url(#arrow-phase)" fill="none" style="animation: dash 0.8s linear infinite"/>

<!-- ─────────────────────────────────────────── -->
<!-- PHASE 7 -->
<!-- ─────────────────────────────────────────── -->
<rect x="40" y="2888" width="820" height="702" rx="14" fill="#EAF3DE" opacity="0.5"/>
<text x="60" y="2914" class="phase-label" fill="#3B6D11">Phase 7 — Production</text>

<!-- L36 -->
<rect x="80" y="2924" width="740" height="52" rx="10" fill="#C0DD97" stroke="#639922" stroke-width="0.5"/>
<text x="100" y="2945" class="lesson-num" fill="#27500A">Lesson 36</text>
<text x="100" y="2963" class="lesson-title" fill="#173404">Settings management</text>
<line x1="450" y1="2976" x2="450" y2="2994" class="arrow-line" stroke="#639922" marker-end="url(#arrow)" style="animation-delay:0.0s"/>

<!-- L37 -->
<rect x="80" y="2996" width="740" height="52" rx="10" fill="#C0DD97" stroke="#639922" stroke-width="0.5"/>
<text x="100" y="3017" class="lesson-num" fill="#27500A">Lesson 37</text>
<text x="100" y="3035" class="lesson-title" fill="#173404">Deployment</text>
<line x1="450" y1="3048" x2="450" y2="3066" class="arrow-line" stroke="#639922" marker-end="url(#arrow)" style="animation-delay:0.1s"/>

<!-- L38 -->
<rect x="80" y="3068" width="740" height="52" rx="10" fill="#C0DD97" stroke="#639922" stroke-width="0.5"/>
<text x="100" y="3089" class="lesson-num" fill="#27500A">Lesson 38</text>
<text x="100" y="3107" class="lesson-title" fill="#173404">Celery and async tasks</text>
<line x1="450" y1="3120" x2="450" y2="3138" class="arrow-line" stroke="#639922" marker-end="url(#arrow)" style="animation-delay:0.2s"/>

<!-- L39 -->
<rect x="80" y="3140" width="740" height="52" rx="10" fill="#C0DD97" stroke="#639922" stroke-width="0.5"/>
<text x="100" y="3161" class="lesson-num" fill="#27500A">Lesson 39</text>
<text x="100" y="3179" class="lesson-title" fill="#173404">Caching</text>
<line x1="450" y1="3192" x2="450" y2="3210" class="arrow-line" stroke="#639922" marker-end="url(#arrow)" style="animation-delay:0.3s"/>

<!-- L40 -->
<rect x="80" y="3212" width="740" height="52" rx="10" fill="#C0DD97" stroke="#639922" stroke-width="0.5"/>
<text x="100" y="3233" class="lesson-num" fill="#27500A">Lesson 40</text>
<text x="100" y="3251" class="lesson-title" fill="#173404">Testing</text>
<line x1="450" y1="3264" x2="450" y2="3282" class="arrow-line" stroke="#639922" marker-end="url(#arrow)" style="animation-delay:0.4s"/>

<!-- L41 -->
<rect x="80" y="3284" width="740" height="52" rx="10" fill="#C0DD97" stroke="#639922" stroke-width="0.5"/>
<text x="100" y="3305" class="lesson-num" fill="#27500A">Lesson 41</text>
<text x="100" y="3323" class="lesson-title" fill="#173404">Database optimization</text>
<line x1="450" y1="3336" x2="450" y2="3354" class="arrow-line" stroke="#639922" marker-end="url(#arrow)" style="animation-delay:0.5s"/>

<!-- L42 -->
<rect x="80" y="3356" width="740" height="52" rx="10" fill="#C0DD97" stroke="#639922" stroke-width="0.5"/>
<text x="100" y="3377" class="lesson-num" fill="#27500A">Lesson 42</text>
<text x="100" y="3395" class="lesson-title" fill="#173404">Security checklist</text>
<line x1="450" y1="3408" x2="450" y2="3426" class="arrow-line" stroke="#639922" marker-end="url(#arrow)" style="animation-delay:0.6s"/>

<!-- L43 -->
<rect x="80" y="3428" width="740" height="52" rx="10" fill="#C0DD97" stroke="#639922" stroke-width="0.5"/>
<text x="100" y="3449" class="lesson-num" fill="#27500A">Lesson 43</text>
<text x="100" y="3467" class="lesson-title" fill="#173404">Signals</text>
<line x1="450" y1="3480" x2="450" y2="3498" class="arrow-line" stroke="#639922" marker-end="url(#arrow)" style="animation-delay:0.7s"/>

<!-- L44 -->
<rect x="80" y="3500" width="740" height="52" rx="10" fill="#C0DD97" stroke="#639922" stroke-width="0.5"/>
<text x="100" y="3521" class="lesson-num" fill="#27500A">Lesson 44</text>
<text x="100" y="3539" class="lesson-title" fill="#173404">Middleware</text>

<line x1="450" y1="3552" x2="450" y2="3574" stroke="#534AB7" stroke-width="2.5" stroke-dasharray="6 4" marker-end="url(#arrow-phase)" fill="none" style="animation: dash 0.8s linear infinite"/>

<!-- ─────────────────────────────────────────── -->
<!-- PHASE 8 -->
<!-- ─────────────────────────────────────────── -->
<rect x="40" y="3582" width="820" height="378" rx="14" fill="#D3D1C7" opacity="0.3"/>
<text x="60" y="3608" class="phase-label" fill="#444441">Phase 8 — Projects</text>

<!-- L45 -->
<rect x="80" y="3618" width="740" height="52" rx="10" fill="#888780" stroke="#5F5E5A" stroke-width="0.5"/>
<text x="100" y="3639" class="lesson-num" fill="#F1EFE8">Lesson 45</text>
<text x="100" y="3657" class="lesson-title" fill="#F1EFE8">Project — Blog with auth</text>
<line x1="450" y1="3670" x2="450" y2="3688" class="arrow-line" stroke="#5F5E5A" marker-end="url(#arrow)" style="animation-delay:0.0s"/>

<!-- L46 -->
<rect x="80" y="3690" width="740" height="52" rx="10" fill="#888780" stroke="#5F5E5A" stroke-width="0.5"/>
<text x="100" y="3711" class="lesson-num" fill="#F1EFE8">Lesson 46</text>
<text x="100" y="3729" class="lesson-title" fill="#F1EFE8">Project — Multi-user task manager</text>
<line x1="450" y1="3742" x2="450" y2="3760" class="arrow-line" stroke="#5F5E5A" marker-end="url(#arrow)" style="animation-delay:0.1s"/>

<!-- L47 -->
<rect x="80" y="3762" width="740" height="52" rx="10" fill="#888780" stroke="#5F5E5A" stroke-width="0.5"/>
<text x="100" y="3783" class="lesson-num" fill="#F1EFE8">Lesson 47</text>
<text x="100" y="3801" class="lesson-title" fill="#F1EFE8">Project — E-commerce store</text>
<line x1="450" y1="3814" x2="450" y2="3832" class="arrow-line" stroke="#5F5E5A" marker-end="url(#arrow)" style="animation-delay:0.2s"/>

<!-- L48 -->
<rect x="80" y="3834" width="740" height="52" rx="10" fill="#444441" stroke="#2C2C2A" stroke-width="0.5"/>
<text x="100" y="3855" class="lesson-num" fill="#D3D1C7">Lesson 48</text>
<text x="100" y="3873" class="lesson-title" fill="#F1EFE8">Project — Personal project</text>

<!-- Final star / done badge -->
<circle cx="450" cy="3940" r="40" fill="#1D9E75" opacity="0.15"/>
<circle cx="450" cy="3940" r="28" fill="#1D9E75"/>
<text x="450" y="3934" text-anchor="middle" font-family="sans-serif" font-size="11" font-weight="700" fill="white">DJANGO</text>
<text x="450" y="3950" text-anchor="middle" font-family="sans-serif" font-size="11" font-weight="700" fill="white">READY</text>

<!-- Legend -->
<text x="450" y="4010" text-anchor="middle" font-family="sans-serif" font-size="11" fill="#888780">— — animated arrows indicate lesson flow  |  bold arrows indicate phase transitions —</text>
<text x="450" y="4030" text-anchor="middle" font-family="sans-serif" font-size="11" fill="#888780">github.com/django-get-set-go</text>

</svg>
